<?xml version="1.0" encoding="utf-8"?>
<!-- Generator: Adobe Illustrator 19.2.1, SVG Export Plug-In . SVG Version: 6.00 Build 0)  -->
<svg version="1.1" id="Layer_1" xmlns="http://www.w3.org/2000/svg" xmlns:xlink="http://www.w3.org/1999/xlink" x="0px" y="0px"
	 width="100px" height="125px" viewBox="0 0 100 125" style="enable-background:new 0 0 100 125;" xml:space="preserve">
<style type="text/css">
	.st0{fill:#963C3C;}
</style>
<g>
	<g>
		<path class="st0" d="M86.6,75L86.6,75c-1.3,0.8-2.7,1.3-4.2,1.9c-16.3,7.4-16.1,32.8-16.1,34.2c0,0.3,0.1,0.5,0.1,0.8
			c0,6.2-4.7,11.8-10.9,12.5c-6.2,0.7-12-3.5-13.2-9.6c-0.8-3.4-0.8-20.6,6.7-36.6h-0.4c1.6-2.2,2.7-4.7,2.7-7.4
			c0-3.2-1.3-6.2-3.4-8.3c5.5-0.8,9.3-5.5,9.3-12.1c0-4.3-2.3-8.1-5.7-10.2C54.9,38,57,34.2,57,30c0-6.7-5.5-12.2-12.2-12.2
			c1.9-2.2,3.2-5,3.2-8.1s-1.2-5.9-3.2-8.2h29.5c13.9,0,25,11.2,25,25v26.6C99.4,62.4,94.1,70.6,86.6,75z"/>
		<path class="st0" d="M35.8,17.8h-13c-4.4,0-8.1-3.6-8.1-8.1s3.6-8.2,8.1-8.2h8.7h4.4c4.4,0,8.1,3.6,8.1,8.2
			C44,14.1,40.3,17.8,35.8,17.8z"/>
		<path class="st0" d="M35.8,21.8h9c4.4,0,8.1,3.6,8.1,8.1S49.2,38,44.8,38H9.1H8.9c-4.4,0-8.2-3.6-8.2-8.1s3.6-8.1,8.2-8.1h13.9
			H35.8z"/>
		<path class="st0" d="M9.1,42.3h35.8h0.3c4.4,0,8.1,3.6,8.1,8.1s-2.4,8.2-7,8.2H45H39H18.4H9.1c-4.4,0-8.2-3.6-8.2-8.2
			C0.9,45.9,4.5,42.3,9.1,42.3z"/>
		<path class="st0" d="M39.1,62.6c4.4,0,8.1,3.6,8.1,8.2c0,4.4-3.6,8.1-8.1,8.1H18.4c-4.4,0-8.1-3.6-8.1-8.1c0-4.6,3.6-8.2,8.1-8.2
			H39.1z"/>
	</g>
</g>
</svg>
