<?xml version="1.0" encoding="utf-8"?>
<!-- Generator: Adobe Illustrator 19.2.1, SVG Export Plug-In . SVG Version: 6.00 Build 0)  -->
<svg version="1.1" id="Layer_1" xmlns="http://www.w3.org/2000/svg" xmlns:xlink="http://www.w3.org/1999/xlink" x="0px" y="0px"
	 width="100px" height="125px" viewBox="0 0 100 125" style="enable-background:new 0 0 100 125;" xml:space="preserve">
<style type="text/css">
	.st0{fill:#6F9C64;}
</style>
<g>
	<g>
		<path class="st0" d="M85.6,48.6C85.6,48.6,85.6,48.6,85.6,48.6c-1.3-0.7-2.7-1.3-4.1-1.8c-16.1-7.3-15.9-32.3-15.9-33.6
			c0-0.3,0.1-0.5,0.1-0.8c0-6.1-4.6-11.6-10.7-12.3c-6.1-0.7-11.7,3.4-13.1,9.4c-0.7,3.3-0.8,20.3,6.6,36h-0.2
			c1.6,2,2.5,4.5,2.5,7.3c0,3.2-1.2,6-3.3,8.2c5.5,0.8,9.2,5.5,9.2,11.9c0,4.2-2.2,8-5.5,10.1c3.2,2.2,5.3,5.8,5.3,9.9
			c0,6.6-5.4,12-12,12.1c1.9,2.1,3.1,4.9,3.1,8c0,3.1-1.2,5.9-3.1,8h29c13.6,0,24.7-11.1,24.7-24.7V70.2
			C98.2,60.9,93.1,52.9,85.6,48.6z"/>
		<path class="st0" d="M35.6,105H22.7c-4.4,0-8,3.6-8,8c0,4.4,3.6,8,8,8h8.6h4.3c4.4,0,8-3.6,8-8C43.6,108.5,40,105,35.6,105z"/>
		<path class="st0" d="M35.6,100.9h8.9c4.4,0,8-3.6,8-8c0-4.4-3.6-8-8-8H9.2H9c-4.4,0-8,3.6-8,8c0,4.4,3.6,8,8,8h13.7H35.6z"/>
		<path class="st0" d="M9.2,80.9h35.2h0.2c4.4,0,8-3.6,8-8c0-4.4-2.4-8-6.9-8h-1.1h-5.9H18.4H9.2c-4.4,0-8,3.6-8,8
			C1.2,77.3,4.8,80.9,9.2,80.9z"/>
		<path class="st0" d="M38.8,60.8c4.4,0,8-3.6,8-8c0-4.4-3.6-8-8-8H18.4c-4.4,0-8,3.6-8,8c0,4.4,3.6,8,8,8H38.8z"/>
	</g>
</g>
</svg>
